<svg width="218" height="32" viewBox="0 0 218 32" fill="none" xmlns="http://www.w3.org/2000/svg">
<path d="M170.935 8.12331C167.839 6.85677 164.016 7.28315 161.437 9.45554C159.413 11.1385 158.275 13.7692 158.313 16.3715C158.276 18.0483 158.774 19.709 159.615 21.1576C160.712 22.9755 162.519 24.3646 164.581 24.942C166.646 25.532 168.917 25.4329 170.907 24.62C172.415 23.9719 173.732 22.8963 174.638 21.5368C173.793 20.9189 172.946 20.3037 172.099 19.6882L172.095 19.6858L171.577 19.3087C171.149 20.072 170.435 20.626 169.692 21.0708C168.542 21.6755 167.161 21.7796 165.905 21.4796C164.798 21.2195 163.848 20.5095 163.128 19.6568C162.217 18.394 161.868 16.7571 162.177 15.2366C162.432 14.0692 163.008 12.9291 164.004 12.2141C165.246 11.142 167.029 10.8942 168.6 11.2426C169.825 11.5611 170.951 12.349 171.589 13.4384L172.533 12.7398L172.534 12.7392L172.534 12.7385C173.232 12.2225 173.929 11.7065 174.625 11.1892C173.736 9.83471 172.427 8.76787 170.935 8.12331Z" fill="white"/>
<path d="M50.0937 7.68513C48.8219 7.68396 47.5486 7.68396 46.2769 7.68513C47.0474 10.0326 47.8214 12.3788 48.5955 14.7251C49.7297 18.163 50.8639 21.6009 51.9869 25.0428C52.7985 25.0575 53.6106 25.0552 54.4229 25.0528C54.8558 25.0515 55.2893 25.0503 55.7222 25.0516C56.6376 22.2528 57.5538 19.4545 58.4701 16.6563L58.475 16.641C59.4524 13.6559 60.4298 10.6708 61.4062 7.68513C60.1531 7.68396 58.9012 7.68396 57.6484 7.68396C56.8068 10.2794 55.9676 12.8747 55.1284 15.4701L55.1266 15.4756C54.7142 16.7509 54.3018 18.0262 53.8891 19.3016C53.3509 17.6546 52.8129 16.0076 52.2749 14.3607C51.5479 12.1353 50.821 9.91008 50.0937 7.68513Z" fill="white"/>
<path d="M64.1138 7.68484C65.363 7.68367 66.6123 7.68367 67.8603 7.68484C67.8611 10.5791 67.8611 13.4736 67.8611 16.3681C67.8611 19.2626 67.8611 22.1571 67.8618 25.0513C66.9409 25.0533 66.0202 25.053 65.0995 25.0527L64.1138 25.0525L64.1135 19.2628C64.1133 15.4035 64.113 11.5435 64.1138 7.68484Z" fill="white"/>
<path fill-rule="evenodd" clip-rule="evenodd" d="M74.2959 7.68419C75.626 7.68289 76.9563 7.6816 78.2859 7.68976C80.2519 7.70559 82.2205 8.35396 83.7455 9.5944C86.7979 12.0257 87.7316 16.5588 86.1227 20.0522C85.1966 22.2293 83.2467 23.9445 80.9638 24.626C79.8234 25.0152 78.6029 25.0536 77.4088 25.0524C76.5273 25.0518 75.6457 25.0521 74.7642 25.0524C73.8827 25.0527 73.0012 25.053 72.1198 25.0524C72.1198 23.1225 72.1196 21.1926 72.1195 19.2627C72.1191 15.4034 72.1188 11.5434 72.1198 7.68477C72.8449 7.6856 73.5705 7.68489 74.2959 7.68419ZM75.8665 11.2976V21.4393C76.1574 21.4361 76.4486 21.4381 76.7398 21.4401C77.5514 21.4457 78.3633 21.4514 79.1683 21.3428C80.3072 21.1396 81.3198 20.4816 82.073 19.6265C83.5064 17.7725 83.4913 14.9928 82.0691 13.1354C81.3198 12.2791 80.3161 11.6011 79.1721 11.4067C78.4287 11.2765 77.6743 11.2869 76.9203 11.2973C76.5686 11.3022 76.2169 11.307 75.8665 11.2976Z" fill="white"/>
<path fill-rule="evenodd" clip-rule="evenodd" d="M97.6639 7.68396C96.3797 7.68396 95.0951 7.68396 93.8121 7.68513C92.4427 11.8548 91.0747 16.0251 89.7067 20.1956L88.1133 25.0528H91.8136C91.9369 24.671 92.0604 24.2896 92.1838 23.9081C92.3072 23.5268 92.4306 23.1455 92.554 22.764H98.8156C98.9396 23.1451 99.0627 23.5268 99.1859 23.9085C99.309 24.2902 99.4321 24.6718 99.556 25.0528L100.554 25.053C101.482 25.0533 102.41 25.0535 103.338 25.0516L101.942 20.7795C100.516 16.4146 99.0905 12.0493 97.6639 7.68396ZM97.65 19.1959C96.3382 19.1983 95.0261 19.1983 93.7155 19.1959L93.7859 18.9802C94.4189 17.0395 95.0523 15.0977 95.6877 13.1571C95.9231 13.8815 96.1584 14.606 96.3937 15.3306L96.3992 15.3475L96.4007 15.3523L96.4018 15.3555L96.4021 15.3566C96.8177 16.6364 97.2334 17.9164 97.65 19.1959Z" fill="white"/>
<path d="M109.807 7.68506H106.059V25.0515C106.059 25.0515 113.748 25.0527 118.332 25.0527V21.4405L109.807 21.4393V7.68506Z" fill="white"/>
<path d="M117.248 7.68323H121.287C121.287 7.68323 123.84 12.7406 125.118 15.2684C126.396 12.7406 128.949 7.68323 128.949 7.68323H132.939C132.939 7.68323 128.945 15.4669 126.988 19.3753C126.967 20.553 126.97 21.7315 126.973 22.9097C126.975 23.6235 126.977 24.3376 126.974 25.0509C125.721 25.0523 124.468 25.0523 123.215 25.0523C123.215 24.4344 123.215 23.8167 123.214 23.199V23.1935C123.214 22.0774 123.213 20.9613 123.217 19.8448C123.216 19.8089 123.216 19.7725 123.216 19.7359C123.216 19.5921 123.216 19.4458 123.141 19.3182C121.176 15.4408 117.248 7.68323 117.248 7.68323Z" fill="white"/>
<path d="M148.359 7.68506H134.592V11.2973H139.596V25.0527L140.588 25.0529C141.511 25.0532 142.433 25.0535 143.356 25.0515V11.2973L148.36 11.2961L148.359 7.68506Z" fill="white"/>
<path d="M151.385 7.68484C152.634 7.68367 153.884 7.68367 155.133 7.68484V25.0525C153.884 25.0525 152.634 25.0525 151.385 25.0513C151.386 22.1602 151.385 19.2688 151.385 16.3774C151.385 13.4798 151.385 10.5822 151.385 7.68484Z" fill="white"/>
<path d="M183.118 14.4056C183.347 14.4232 183.574 14.4406 183.794 14.4683C185.406 14.5636 187.111 14.9715 188.279 16.1474C189.152 17.062 189.684 18.3259 189.632 19.5937C189.66 21.4042 188.732 23.2235 187.18 24.205C185.675 25.2038 183.774 25.4627 182.003 25.2469C180.333 25.0437 178.684 24.2792 177.637 22.9469C177.29 22.4915 177.014 21.9816 176.823 21.4426L180.234 19.7027C180.267 20.313 180.585 20.9206 181.13 21.2294C182 21.7845 183.099 21.8405 184.095 21.6731C184.785 21.5282 185.519 21.1587 185.788 20.4711C186.09 19.8303 185.908 18.9863 185.302 18.5863C184.727 18.1835 184.025 18.1213 183.339 18.0604C183.15 18.0437 182.963 18.0271 182.781 18.0037C181.386 17.8811 179.913 17.7224 178.722 16.9318C177.355 16.0459 176.579 14.3853 176.678 12.7841C176.688 11.7607 177.048 10.7593 177.612 9.90912C178.556 8.5461 180.15 7.72325 181.784 7.50507C183.56 7.26725 185.463 7.52237 186.988 8.50006C187.951 9.09595 188.687 10.0244 189.073 11.0763L185.656 12.8187H185.654C185.615 11.9067 184.771 11.2352 183.922 11.0554C182.967 10.8918 181.892 10.8868 181.076 11.4768C180.343 11.9551 180.118 13.1299 180.812 13.7384C181.455 14.2779 182.299 14.3427 183.118 14.4056Z" fill="white"/>
<path d="M18.7003 30.7634L0 2.66669H3.59596L18.6842 25.3366L28.235 10.8057H18.4173L16.4104 7.85014H33.7604L18.7003 30.7634Z" fill="white"/>
<path d="M18.6935 21.149L6.48958 2.66673H37.0626L35.0557 5.62232H11.9862L18.6876 15.7071L20.4443 13.0343H24.027L18.6935 21.149Z" fill="white"/>
<rect x="196.5" y="0.199951" width="21" height="8" fill="#015AB9"/>
<rect x="196.5" y="8.19995" width="21" height="8" fill="#FED600"/>
</svg>
